<svg style="object-fit:cover" id="my-svg" version="1" baseProfile="full" width="100%" height="100%" viewBox="0 0 1534 752" xmlns="http://www.w3.org/2000/svg"><rect width="1534" height="752" fill="#1e2330"/><path transform="scale(1, 1)" d="M 0,752 V 0,601 C 132.9404761904762,656.5714285714286 265.8809523809524,712.1428571428571 395,730 C 524.1190476190476,747.8571428571429 649.4166666666667,728 791,700 C 932.5833333333333,672 1090.452380952381,635.8571428571429 1217,618 C 1343.547619047619,600.1428571428571 1438.7738095238096,600.5714285714286 1534,601 C 1534,601 1534,752 1534,752 Z" stroke="none" stroke-width="0" fill="#15659790" class="transition-all duration-300 ease-in-out delay-150" style="transform-origin: center center;"/><path transform="scale(1, 1)" d="M 0,752 V 0,902 C 128.01190476190476,845.7142857142858 256.0238095238095,789.4285714285714 380,788 C 503.9761904761905,786.5714285714286 623.9166666666667,840.0000000000001 759,818 C 894.0833333333333,795.9999999999999 1044.3095238095236,698.5714285714286 1176,700 C 1307.6904761904764,701.4285714285714 1420.845238095238,801.7142857142858 1534,902 C 1534,902 1534,752 1534,752 Z" stroke="none" stroke-width="0" fill="#156597ff" class="transition-all duration-300 ease-in-out delay-150" style="transform-origin: center center;"/></svg>